<?xml version="1.0" encoding="utf-8"?>
<!-- Generator: Adobe Illustrator 16.0.0, SVG Export Plug-In . SVG Version: 6.00 Build 0)  -->
<!DOCTYPE svg PUBLIC "-//W3C//DTD SVG 1.1//EN" "http://www.w3.org/Graphics/SVG/1.1/DTD/svg11.dtd">
<svg version="1.1" id="Layer_1" xmlns="http://www.w3.org/2000/svg" xmlns:xlink="http://www.w3.org/1999/xlink" x="0px" y="0px"
	 width="226.8px" height="104.2px" viewBox="0 0 226.8 104.2" enable-background="new 0 0 226.8 104.2" xml:space="preserve">
<g id="Layer_1_1_" display="none">
	<g display="inline">
		<path d="M8.8,85.7c3.5-1.1,6.9-3,10.4-3c17.2-0.3,34.4-0.1,51.6-0.199c7.6,0,13.6-4.9,13.5-10.801c0-5.8-6.2-10.6-13.7-10.699
			C60.5,60.799,49.9,62.9,41.8,53.9c-7-7.7-11.5-21.5-7.1-29C40.5,15,48.1,6.9,61.4,7C95,7.2,128.6,7.1,162.1,7
			c4.601,0,8.5,1,8.7,6.2C171,19,166.9,20.3,162,20c-1.6-0.1-3.299,0-4.899,0c-30.601,0-61.2,0-91.7,0c-8.1,0-15.5,6.1-15.7,12.9
			c-0.2,7.3,7.1,13.5,15.8,13.5c4.4,0,8.7,0,13.1,0c14.2,0,20.3,6.1,20.3,20.601c0,3.799,0,7.6,0,11.5c-0.1,10.399-8.7,20-19.1,20.1
			c-21,0.3-42,0.199-63.1,0c-2.7,0-5.3-2-7.9-3C8.8,92.299,8.8,89,8.8,85.7z"/>
		<path d="M131.3,82.5c9.9-1.5,21.199,4.399,29.6-6.5c0.9-1.201,7-0.801,7.4,0.199c1.4,3.4,3,8.6,1.4,10.9
			C165.1,93.7,158.9,99.2,149.6,98.799C143.3,98.6,137,98.9,130.8,98.7c-11.4-0.199-22-10.9-22-22.1c0-11.2,0-22.4,0-33.6
			c0-8.2,11.1-19.4,19.2-19.5c6.801-0.1,13.701,0.4,20.5-0.1c6.201-0.4,10.201,2.4,15,6c14,10.5,8.801,31.5-6.6,38.101
			c-9,3.799-17.5,8.6-26.3,13C130.9,81.2,131.1,81.799,131.3,82.5z M126.701,68.799C136.201,63,144.3,58.4,151.9,53
			c1.801-1.201,2.9-5.5,2.2-7.701c-1.899-5.9-10.899-10.9-16.5-8.7c-6,2.4-11.3,6.3-10.899,14.2
			C126.9,56,126.701,61.2,126.701,68.799z"/>
		<path d="M195.6,54.9c0,6.8,0.2,13.7-0.101,20.5C195.3,80.7,197.3,83,202.6,82.6c2.7-0.2,5.5,0,8.2,0c5.5-0.1,7.699,2.8,7.699,8.1
			c0,5.301-2.299,7.9-7.699,8.2c-16.9,0.899-23-1.7-28.2-13.2c-1-2.4-1.601-5.1-1.601-7.699c-0.1-14.5,0-28.9-0.1-43.4
			c-0.1-5.3,1.1-9.3,7.301-9.3c6.299,0,7.5,4,7.299,9.3C195.5,41.3,195.6,48.1,195.6,54.9z"/>
		<ellipse cx="188.3" cy="13.5" rx="7.3" ry="6.5"/>
	</g>
</g>
<g id="Layer_2">
	<g>
		<path fill="#FFFFFF" d="M68.2,97.799c-1,0-1.7,0-2.1-0.1h-53c-3.9,0-7-3.1-7-7s3.1-7,7-7h53.8c2.6,0.2,11.2-0.199,15.3-4
			c1.1-1,2.5-2.699,2.5-6.5V72.5c0-0.601,0.1-4.4-2.8-7.5C79,61.9,73.6,60.2,66.3,60.2c-0.8,0-7.7-0.1-14.9-3.1
			c-10.6-4.4-16.5-13-16.5-24.1c-0.1-1.9,0-10.6,6.7-17.7c5.6-6,13.9-9,24.7-9h98.6c3.9,0,7,3.1,7,7c0,3.9-3.1,7-7,7H66.2
			c-6.7,0-11.5,1.5-14.3,4.4c-3,3.1-3.1,7.1-3.1,7.7v0.3v0.1c0,12.8,15.6,13.3,17.4,13.3c11.6,0,20.4,3.2,26,9.5
			c6.4,7.1,6.4,15.6,6.2,17.699c-0.1,6.601-2.5,12.301-7,16.5C84.2,96.9,73.2,97.799,68.2,97.799z"/>
		<path fill="#FFFFFF" d="M141.8,97.799c-0.801,0-1.4,0-1.801,0c-10.6,0-18.399-2.799-23.299-8.199
			c-4.801-5.301-4.901-11.2-4.801-13V48.7c0-9.4,4-15.1,7.301-18.2c7.899-7.4,19.1-7.2,21.399-7.1c14.5,0.1,21.7,6.4,25.2,11.7
			c3.8,5.8,4,11.7,4,12.3c0,10.399-6.6,17.3-11.801,19.7l-0.6,0.3L127.701,80.5C130,82.6,134.5,83.7,140.5,83.7h0.601
			c0.101,0,11.2,0.7,19.5-6.199C163.6,75,168,75.4,170.5,78.4s2.101,7.399-0.899,9.899C159.1,96.9,146.701,97.799,141.8,97.799z
			 M139.1,37.4c-2.399,0-7.5,0.6-10.5,3.4c-1.899,1.8-2.8,4.3-2.8,7.9V66L151.1,54.9c2.399-1.2,4.399-3.2,4.5-7.3
			C155.5,45.2,154,37.5,140.3,37.5h-0.5C139.6,37.4,139.4,37.4,139.1,37.4z"/>
		<path fill="#FFFFFF" d="M212.3,97.799c-11.2,0-19.7-3.1-25.1-9.1c-6-6.699-6-14.5-5.9-16.699V31.4c0-3.9,3.1-7,7-7s7,3.1,7,7v41.3
			v0.2c0,0.5,0,3.8,2.4,6.5c2.699,2.899,7.699,4.399,14.6,4.399c3.9,0,7,3.101,7,7C219.3,94.7,216.201,97.799,212.3,97.799z"/>
		<circle fill="#FFFFFF" cx="188.3" cy="13.5" r="7.3"/>
	</g>
</g>
</svg>
